# xmcd
# 
# Track frame offsets:
#     150
#     22485
#     43107
#     56100
#     77047
#     93415
#     109152
#     129605
#     149287
#     166887
# 
# Disc length: 2431
# 
# Revision: 2
# Processed by: cddbd v1.5.2PL0 Copyright (c) Steve Scherf et al.
# Submitted via: fre:ac v1.0.31
# 
DISCID=8e097d0a
DTITLE=Trevor Baker - Love and Learn
DYEAR=0
DGENRE=Country Gospel
TTITLE0=the best thing in life are free
TTITLE1=Love`s from Above
TTITLE2=They say Angels live in Heaven
TTITLE3=My world turend around
TTITLE4=He understands
TTITLE5=Living Right
TTITLE6=It's about Jesus
TTITLE7=In the clouds
TTITLE8=God's Loving Hand
TTITLE9=Old fashioned Family Love
EXTD=
EXTT0=
EXTT1=
EXTT2=
EXTT3=
EXTT4=
EXTT5=
EXTT6=
EXTT7=
EXTT8=
EXTT9=
PLAYORDER=
